**ABCDEFGHIJKLMNOPQRSTUVWXYZabcdefghijklmnopqrstuvwxyz**************************
**PARASOLID !"#$%&'()*+,-./:;<=>?@[\]^_`{|}~0123456789**************************
**PART1;
MC=AMD64;
MC_MODEL=Intel64 Family 6 Model 85 Stepping 4, GenuineIntel;
MC_ID=unknown;
OS=Windows_NT;
OS_RELEASE=unknown;
FRU=Parasolid Version 31.1, build 290,  3- 9-2020;
APPL=SOLIDWORKS 2020-2020196;
SITE=;
USER=unknown;
FORMAT=text;
GUISE=transmit;
KEY=Rubber Seal;
FILE=Rubber Seal.x_t;
DATE=Wed Nov  4 15:17:14 2020;
**PART2;
SCH=SCH_3101290_31100;
USFLD_SIZE=0;
**PART3;
**END_OF_HEADER*****************************************************************
T51 : TRANSMIT FILE created by modeller version 310129023 SCH_3101290_31100_1300
6222 0 10 20 CCCCCCCI4 mesh1006 0 I8 polyline1008 0 CCCCCCCCCCA16 mesh_offset_da
ta206 0 Z1 5 2 3 0 0 0 0 0 0 0 1e3 1e-8 0 0 0 1 0 1 4 0 81 255 2 2 5 5 1 0 0 0 0
 0 0 70 11 CI9 list_type0 0 1 uI10 notransmit0 0 1 lCCCDCCDI12 finger_index0 0 1
 dI12 finger_block1012 0 CZ3 0 4 T1 0 0 1 20 1 6 6 11 255 4 3 0 1 7 8 1 9 0 0 0
 12 34 CCCCCCI4 mesh1006 0 I8 polyline1008 0 CCCCCCCDI5 owner1040 0 CCCCCCI13 bo
undary_mesh1006 0 I17 boundary_polyline1008 0 CCCA16 index_map_offset0 0 1 dA9 i
ndex_map82 0 A17 node_id_index_map82 0 A20 schema_embedding_map82 0 A5 child12 0
 A14 lowest_node_id0 0 1 dA16 mesh_offset_data206 0 Z7 195 10 11 0 0 0 0 0 0 1e3
 1e-8 4 12 0 1 0 3 1 13 14 15 16 0 0 17 18 19 0 0 0 0 0 0 0 100 255 8 4 4 0 0 1
 0 0 0 1 0 0 0 1 0 0 0 1 0 ?11 9 1 0 1 12 20 1 0 4 0 0 12 12 689 21 22 0 0 0 0 0
 0 1e3 1e-8 9 23 7 1 0 1 1 24 25 26 0 0 0 27 28 0 0 0 0 0 0 0 0 100 20 2 9 0 0 1
 0 0 0 1 0 0 0 1 0 0 0 1 0 ?81 1 21 689 29 12 30 0 0 0 0 70 22 0 4 T12 0 0 4 20
 1 31 31 13 255 24 104 0 12 0 32 0 0 33 0 50 255 25 193 0 32 34 0 0 +0 -70354579
8748079e-33 -.01604718946000435 0 -1 0 0 0 -1 31 255 26 207 0 28 35 0 0 +0 -7589
41520739853e-33 0 0 -1 0 0 0 -1 .01331529838039286 19 8 CCCCCCCA5 owner12 0 Z27
 108 0 12 33 0 36 V0 16 255 28 172 0 ?37 0 38 26 0 0 12 17 255 37 0 39 37 37 0 4
0 28 0 0 +16 38 167 0 ?41 28 42 35 0 0 12 17 41 0 43 41 41 0 44 38 0 0 +16 42 16
2 0 ?45 38 46 47 0 0 12 31 35 206 0 38 47 26 0 +0 .001628750871316185 0 0 -1 0 0
 0 -1 .01302810565692742 31 47 205 0 42 48 35 0 +0 .00299028285795557 0 0 -1 0 0
 0 -1 .0163798076923077 31 48 204 0 46 49 47 0 +0 .003412019151721345 0 0 -1 0 0
 0 -1 .01775 16 46 157 0 ?50 42 51 48 0 0 12 31 49 203 0 51 52 48 0 +0 .004125 0
 0 -1 0 0 0 -1 .01775 16 51 152 0 ?53 46 54 49 0 0 12 31 52 202 0 54 55 49 0 +0
 .004125 0 0 -1 0 0 0 -1 .0195 16 54 147 0 ?56 51 57 52 0 0 12 31 55 201 0 57 58
 52 0 +0 5e-4 0 0 -1 0 0 0 -1 .0195 16 57 142 0 ?59 54 60 55 0 0 12 31 58 200 0
 60 61 55 0 +0 -3252606517456515e-34 0 0 -1 0 0 0 -1 .019 16 60 137 0 ?62 57 63
 58 0 0 12 31 61 199 0 63 64 58 0 +0 -1084202172485504e-34 0 0 -1 0 0 0 -1 .0184
5281053999565 16 63 132 0 ?65 60 66 61 0 0 12 31 64 198 0 66 67 61 0 +0 .0002132
117818244765 0 0 -1 0 0 0 -1 .01804323451785115 16 66 127 0 ?68 63 69 64 0 0 12
 31 67 197 0 69 70 64 0 +0 .000644145861810629 0 0 -1 0 0 0 -1 .0177414912265734
 16 69 122 0 ?71 66 72 67 0 0 12 31 70 196 0 72 73 67 0 +0 .000644145861810629 0
 0 -1 0 0 0 -1 .0167585087734266 16 72 117 0 ?74 69 75 70 0 0 12 31 73 195 0 75
 76 70 0 +0 .0002132117818244765 0 0 -1 0 0 0 -1 .01645676548214885 16 75 112 0
 ?77 72 78 73 0 0 12 31 76 194 0 78 0 73 0 +0 -650521303491303e-33 0 0 -1 0 0 0
 -1 .01604718946000435 16 78 110 0 ?79 75 0 76 0 0 12 17 79 0 80 79 79 0 81 78 0
 0 +15 255 80 277 0 79 32 82 17 81 0 83 81 81 0 79 78 0 0 -15 83 114 0 81 84 0 1
4 255 84 115 85 ?0 86 87 24 88 +0 0 0 86 36 81 1 85 675 89 84 90 0 0 91 92 14 86
 120 91 ?84 93 94 24 95 +0 0 84 93 36 15 87 276 0 77 84 83 54 255 88 180 0 84 0
 95 0 +0 5e-4 0 0 -1 0 .01604718946000435 5e-4 0 0 -1 13 36 107 0 0 0 0 0 0 27 3
2 14 32 178 96 ?97 0 80 24 25 +0 0 97 0 36 81 1 96 677 89 32 98 0 91 99 100 14 9
7 175 99 ?101 32 39 24 34 +0 0 101 32 36 81 1 99 678 89 97 102 0 96 103 104 14 1
01 170 103 ?105 97 43 24 106 +0 0 105 97 36 15 39 264 0 37 97 107 52 255 34 192
 0 97 106 25 0 -0 .001628750871316185 0 0 -1 0 .01302810565692742 .1736481776669
265 .984807753012209 0 0 -1 54 106 191 0 101 108 34 0 +0 .00195 0 0 -1 0 .01485
 .00185 0 0 -1 54 108 190 0 105 109 106 0 -0 .003412019151721345 0 0 -1 0 .017 7
5e-5 0 0 -1 14 105 165 110 ?111 101 112 24 108 +0 0 111 101 36 51 255 109 189 0
 111 113 108 0 -0 -.000912682607125802 0 0 -1 0 .01775 0 0 -1 14 111 160 114 ?11
5 105 116 24 109 +0 0 115 105 36 54 113 188 0 115 117 109 0 +0 .004125 0 0 -1 0
 .018625 875e-6 0 0 -1 14 115 155 118 ?119 111 120 24 113 +0 0 119 111 36 51 117
 187 0 119 121 113 0 +0 -.000912682607125802 0 0 -1 0 .0195 0 0 -1 14 119 150 12
2 ?123 115 124 24 117 +0 0 123 115 36 54 121 186 0 123 125 117 0 +0 5e-4 0 0 -1
 0 .019 5e-4 0 0 -1 14 123 145 126 ?127 119 128 24 121 +0 0 127 119 36 50 125 18
5 0 127 129 121 0 +0 -206048625918899e-33 -.019 0 -1 0 0 0 -1 14 127 140 130 ?13
1 123 132 24 125 +0 0 131 123 36 54 129 184 0 131 133 125 0 +0 5e-4 0 0 -1 0 .01
845281053999565 5e-4 0 0 -1 14 131 135 134 ?135 127 136 24 129 +0 0 135 127 36 5
2 133 183 0 135 137 129 0 -0 .000644145861810629 0 0 -1 0 .0177414912265734 .573
57643635105 .819152044288989 0 0 -1 14 135 130 138 ?93 131 139 24 133 +0 0 93 13
1 36 54 137 182 0 93 95 133 0 -0 3e-4 0 0 -1 0 .01725 6e-4 0 0 -1 14 93 125 140
 ?86 135 141 24 137 +0 0 86 135 36 52 95 181 0 86 88 137 0 +0 .00021321178182447
65 0 0 1 0 .01645676548214885 .573576436351049 .81915204428899 0 0 1 81 1 140 68
8 89 93 142 0 138 0 143 15 141 274 0 71 93 144 17 71 0 141 71 71 0 145 69 0 0 +1
5 144 124 0 146 93 0 17 146 0 144 146 146 0 74 72 0 0 -17 74 0 94 74 74 0 146 72
 0 0 +15 94 275 0 74 86 147 15 147 119 0 148 86 0 17 148 0 147 148 148 0 77 75 0
 0 -17 77 0 87 77 77 0 148 75 0 0 +17 145 0 149 145 145 0 71 69 0 0 -15 149 129
 0 145 135 0 80 255 1 89 150 151 9000 1 1 1 1 1 1 1 1 0 FFFFTFTFFFFFFF1 81 1 142
 642 152 93 0 140 153 154 155 81 1 138 687 89 135 153 0 134 140 156 82 255 1 143
 -75235005 81 1 153 641 152 135 0 138 157 142 158 81 1 134 686 89 131 157 0 130
 138 159 82 1 156 -74645181 81 1 157 640 152 131 0 134 160 153 161 81 1 130 685
 89 127 160 0 126 134 162 82 1 159 -74055357 81 1 160 639 152 127 0 130 163 157
 164 81 1 126 684 89 123 163 0 122 130 165 82 1 162 -73465533 81 1 163 638 152 1
23 0 126 166 160 167 81 1 122 683 89 119 166 0 118 126 168 82 1 165 -72875709 81
 1 166 637 152 119 0 122 169 163 170 81 1 118 682 89 115 169 0 114 122 171 82 1
 168 -72285885 81 1 169 636 152 115 0 118 172 166 173 81 1 114 681 89 111 172 0
 110 118 174 82 1 171 -71696061 81 1 172 635 152 111 0 114 175 169 176 81 1 110
 680 89 105 175 0 103 114 177 82 1 174 -71106237 81 1 175 634 152 105 0 110 178
 172 179 81 1 103 679 89 101 178 0 99 110 180 82 1 177 -70516413 81 1 178 633 15
2 101 0 103 102 175 181 82 1 180 -69926589 80 1 152 0 182 8001 0 0 0 0 3 5 0 0 0
 FFFFTFTFFFFFFF2 81 1 102 632 152 97 0 99 98 178 183 83 255 3 181 .2980392156862
745 .2980392156862745 .2980392156862745 81 1 98 631 152 32 0 96 0 102 184 83 3 1
83 .2980392156862745 .2980392156862745 .2980392156862745 83 3 184 .2980392156862
745 .2980392156862745 .2980392156862745 79 255 15 182 SDL/TYSA_COLOUR83 3 179 .2
980392156862745 .2980392156862745 .2980392156862745 83 3 176 .2980392156862745 .
2980392156862745 .2980392156862745 83 3 173 .2980392156862745 .2980392156862745
 .2980392156862745 83 3 170 .2980392156862745 .2980392156862745 .298039215686274
5 83 3 167 .2980392156862745 .2980392156862745 .2980392156862745 83 3 164 .29803
92156862745 .2980392156862745 .2980392156862745 83 3 161 .2980392156862745 .2980
392156862745 .2980392156862745 83 3 158 .2980392156862745 .2980392156862745 .298
0392156862745 81 1 154 643 152 86 0 91 142 90 185 83 3 155 .2980392156862745 .29
80392156862745 .2980392156862745 81 1 91 676 89 86 154 0 85 96 186 81 1 90 644 1
52 84 0 85 154 0 187 83 3 185 .2980392156862745 .2980392156862745 .2980392156862
745 83 3 187 .2980392156862745 .2980392156862745 .2980392156862745 82 1 186 -758
24829 79 14 151 SWEntUnchanged15 139 273 0 68 135 149 17 68 0 139 68 68 0 188 66
 0 0 +17 188 0 189 188 188 0 68 66 0 0 -15 189 134 0 188 131 0 15 136 272 0 65 1
31 189 17 65 0 136 65 65 0 190 63 0 0 +17 190 0 191 190 190 0 65 63 0 0 -15 191
 139 0 190 127 0 15 132 271 0 62 127 191 17 62 0 132 62 62 0 192 60 0 0 +17 192
 0 193 192 192 0 62 60 0 0 -15 193 144 0 192 123 0 15 128 270 0 59 123 193 17 59
 0 128 59 59 0 194 57 0 0 +17 194 0 195 194 194 0 59 57 0 0 -15 195 149 0 194 11
9 0 15 124 269 0 56 119 195 17 56 0 124 56 56 0 196 54 0 0 +17 196 0 197 196 196
 0 56 54 0 0 -15 197 154 0 196 115 0 15 120 268 0 53 115 197 17 53 0 120 53 53 0
 198 51 0 0 +17 198 0 199 198 198 0 53 51 0 0 -15 199 159 0 198 111 0 15 116 267
 0 50 111 199 17 50 0 116 50 50 0 200 46 0 0 +17 200 0 201 200 200 0 50 46 0 0 -
15 201 164 0 200 105 0 15 112 266 0 45 105 201 17 45 0 112 45 45 0 202 42 0 0 +1
7 202 0 203 202 202 0 45 42 0 0 -15 203 169 0 202 101 0 15 107 174 0 44 97 0 17
 44 0 107 44 44 0 41 38 0 0 -15 43 265 0 41 101 203 82 1 104 -69336765 82 1 100
 -69009085 82 1 92 -76414653 15 82 177 0 40 32 0 17 40 0 82 40 40 0 37 28 0 0 -1
9 33 103 0 12 0 27 24 S0 74 4 CI16 index_map_offset0 0 1 dCCZ20 31 4 0 0 140 30
 90 21 0 0 0 0 0 0 0 0 0 0 0 0 0 0 0 0 81 2 30 417 204 12 0 21 0 0 205 0 80 2 20
4 206 207 8004 0 0 0 0 3 5 0 0 0 FFTFFFFFFFFFFF2 3 83 1 205 1e3 79 16 207 SDL/TY
SA_DENSITY80 1 29 208 209 8017 0 0 0 0 0 0 0 0 0 TTTTTTTTTTTTTF3 79 13 209 SDL/T
YSA_NAME81 1 10 195 29 7 0 0 0 0 0 70 11 0 4 T7 0 0 3 20 1 210 210 13 13 3 0 7 0
 211 0 0 17 211 50 14 25 0 211 0 0 0 +-85129402577877e-18 .00251475555705838 100
1451164484024e-20 0 0 1 1 0 0 30 255 15 22 0 212 213 0 0 +-85629402577877e-18 .0
0251475555705838 1001451164484024e-20 0 1 0 29 255 16 24 0 214 215 0 -8562940257
7877e-18 .00251525555705838 1001451164484024e-20 19 17 5 0 7 0 0 13 V0 16 18 6 0
 ?216 0 217 218 0 0 7 18 255 19 20 0 219 0 220 215 ?7 17 219 0 221 222 223 19 22
4 212 0 225 -18 220 16 0 222 19 226 227 ?7 29 215 23 0 19 227 16 -85629402577877
e-18 .00251425555705838 1001451164484024e-20 29 227 19 0 220 228 215 -8462940257
78771e-19 .00251425555705838 1001451164484024e-20 29 228 15 0 226 0 227 -8462940
25778771e-19 .00251525555705838 1001451164484024e-20 18 226 12 0 229 220 214 228
 ?7 17 229 0 221 223 222 226 230 217 0 216 -18 214 11 0 224 226 0 16 ?7 17 224 0
 0 0 0 214 219 212 0 223 +16 212 21 0 ?224 231 0 15 0 0 7 17 223 0 221 219 229 2
14 216 18 0 0 -15 221 8 0 223 211 0 17 216 0 0 0 0 226 223 18 0 0 +14 211 9 232
 ?0 0 221 13 14 +0 0 0 0 13 81 1 232 194 89 211 233 0 0 0 234 81 1 233 185 152 2
11 0 232 0 0 235 82 1 234 671744307 83 3 235 .2980392156862745 .2980392156862745
 .2980392156862745 16 231 17 0 ?225 217 212 213 0 0 7 17 225 0 0 0 0 19 222 231
 0 0 +16 217 13 0 ?230 18 231 236 0 0 7 30 213 18 0 231 236 15 0 +-8512940257787
7e-18 .00251425555705838 1001451164484024e-20 -1 0 0 30 236 14 0 217 218 213 0 +
-846294025778771e-19 .00251475555705838 1001451164484024e-20 0 -1 0 30 218 10 0
 18 0 236 0 +-85129402577877e-18 .00251525555705838 1001451164484024e-20 1 0 0 1
7 230 0 0 0 0 220 229 217 0 0 +17 222 0 221 229 219 220 225 231 0 230 -74 20 210
 3 0 0 233 232 10 0 0 0 0 0 0 0 0 0 0 0 0 0 0 0 0 0 74 20 6 1 0 0 2 0 0 0 0 0 0
 0 0 0 0 0 0 0 0 0 0 0 0 0 80 2 5 237 238 9000 0 0 0 0 3 5 0 0 0 TFFFFFFFFFFFFF9
 1 79 18 238 MULTI_BODY_ID_20011 0 
